<?xml version="1.0" encoding="UTF-8"?>
<svg xmlns="http://www.w3.org/2000/svg" width="230" height="230" viewBox="0 0 230 230" fill="none">
  <path d="M105.079 153.579C104.403 153.579 103.726 153.354 103.05 152.678C96.7365 145.02 79.375 128.802 54.7984 142.091C53.671 142.767 52.0927 142.317 51.4162 140.965C50.7398 139.839 51.1908 138.262 52.5436 137.586C81.1788 122.269 101.471 142.767 106.883 149.525C107.785 150.651 107.559 152.228 106.657 153.129C106.206 153.354 105.53 153.579 105.079 153.579Z" fill="#6B9080" stroke="#6B9080" stroke-width="2"></path>
  <path d="M94.9328 178.808C83.8846 178.808 74.4146 175.88 66.974 170.248C52.7691 159.211 51.1908 141.416 50.9653 140.74C50.9653 139.389 51.8672 138.037 53.2201 138.037C54.5729 138.037 55.9258 138.938 55.9258 140.29C55.9258 140.515 57.5041 156.508 69.9052 166.194C78.6987 173.177 91.0997 175.204 106.432 172.726C107.785 172.501 109.138 173.402 109.363 174.753C109.589 176.105 108.687 177.456 107.334 177.682C103.05 178.357 98.7659 178.808 94.9328 178.808Z" fill="#6B9080" stroke="#6B9080" stroke-width="2"></path>
  <path d="M125.146 153.355C124.47 153.355 124.019 153.13 123.568 152.68C122.441 151.779 122.441 150.202 123.342 149.076C128.979 142.543 149.272 122.045 177.682 137.588C178.809 138.263 179.26 139.84 178.809 140.966C178.133 142.093 176.554 142.543 175.427 142.093C150.85 128.803 133.489 145.021 127.176 152.454C126.499 153.13 125.823 153.355 125.146 153.355Z" fill="#6B9080" stroke="#6B9080" stroke-width="2"></path>
  <path d="M135.067 178.809C131.009 178.809 126.725 178.358 122.441 177.682C121.088 177.457 120.186 176.105 120.411 174.754C120.637 173.402 121.99 172.501 123.343 172.727C138.675 175.204 151.076 173.177 159.869 166.194C172.496 156.508 173.849 140.29 173.849 140.29C174.074 138.939 175.202 137.812 176.554 138.038C177.907 138.263 179.035 139.389 178.809 140.741C178.809 141.416 177.231 159.211 162.801 170.249C155.585 175.88 146.341 178.809 135.067 178.809Z" fill="#6B9080" stroke="#6B9080" stroke-width="2"></path>
  <path d="M134.842 144.57H134.391C133.038 144.344 132.136 142.993 132.362 141.641C132.587 140.74 136.871 117.314 115 104.925C92.9036 117.539 97.6385 141.416 97.6385 141.641C97.864 142.993 96.9621 144.344 95.6093 144.57C94.2564 144.795 92.9036 143.894 92.6781 142.542C92.6781 142.317 87.0412 113.71 113.873 99.7441L115 99.0684L116.127 99.7441C142.733 113.71 137.322 142.317 137.322 142.542C137.097 143.669 135.969 144.57 134.842 144.57Z" fill="#6B9080" stroke="#6B9080" stroke-width="2"></path>
  <path d="M4.74313 96.3655C4.0667 96.3655 3.16481 95.915 2.71386 95.4645C1.81196 94.3382 2.03744 92.7614 3.16481 91.8604L113.422 8.9671C114.549 8.06608 116.127 8.29134 117.029 9.41761C117.931 10.5439 117.706 12.1206 116.578 13.0217L6.32145 95.915C5.8705 96.1402 5.41955 96.3655 4.74313 96.3655Z" fill="#6B9080" stroke="#6B9080" stroke-width="2"></path>
  <path d="M72.8363 72.939C72.1598 72.939 71.2579 72.4885 70.807 72.038C69.9051 70.9117 70.1306 69.3349 71.2579 68.4339L113.422 36.6732C114.549 35.7721 116.127 35.9974 117.029 37.1237C117.931 38.2499 117.706 39.8267 116.578 40.7277L74.4146 72.4885C73.9636 72.7137 73.5127 72.939 72.8363 72.939Z" fill="#6B9080" stroke="#6B9080" stroke-width="2"></path>
  <path d="M225.257 96.3655C224.806 96.3655 224.129 96.1402 223.679 95.915L113.422 13.0217C112.294 12.1206 112.069 10.5439 112.971 9.41761C113.873 8.29134 115.451 8.06608 116.578 8.9671L226.835 91.8604C227.963 92.7614 228.188 94.3382 227.286 95.4645C226.835 96.1402 225.933 96.3655 225.257 96.3655Z" fill="#6B9080" stroke="#6B9080" stroke-width="2"></path>
  <path d="M157.164 72.939C156.713 72.939 156.036 72.7137 155.585 72.4885L113.422 40.7277C112.294 39.8267 112.069 38.2499 112.971 37.1237C113.873 35.9974 115.451 35.7721 116.578 36.6732L158.742 68.4339C159.869 69.3349 160.095 70.9117 159.193 72.038C158.516 72.7137 157.84 72.939 157.164 72.939Z" fill="#6B9080" stroke="#6B9080" stroke-width="2"></path>
  <path d="M110.039 221.607H41.4953C31.5745 221.607 23.4574 213.497 23.4574 203.586V91.8606C23.4574 90.5091 24.5848 89.3828 25.9376 89.3828C27.2905 89.3828 28.4178 90.5091 28.4178 91.8606V203.812C28.4178 211.02 34.2802 216.876 41.4953 216.876H110.039C111.392 216.876 112.52 218.003 112.52 219.354C112.52 220.48 111.392 221.607 110.039 221.607Z" fill="#6B9080" stroke="#6B9080" stroke-width="2"></path>
  <path d="M188.504 221.607H136.645C123.342 221.607 112.52 210.794 112.52 197.504V137.587C112.52 136.236 113.647 135.109 115 135.109C116.353 135.109 117.48 136.236 117.48 137.587V197.279C117.48 207.866 126.048 216.426 136.645 216.426H188.504C195.72 216.426 201.582 210.569 201.582 203.361V91.8606C201.582 90.5091 202.709 89.3828 204.062 89.3828C205.415 89.3828 206.542 90.5091 206.542 91.8606V203.812C206.542 213.497 198.425 221.607 188.504 221.607Z" fill="#6B9080" stroke="#6B9080" stroke-width="2"></path>
</svg>
