<svg xmlns="http://www.w3.org/2000/svg" width="430" height="430" style="width:100%;height:100%;transform:translate3d(0,0,0);content-visibility:visible" viewBox="0 0 430 430"><defs><clipPath id="i"><path d="M0 0h430v430H0z"/></clipPath><clipPath id="l"><path d="M0 0h430v430H0z"/></clipPath><clipPath id="g"><path d="M0 0h430v430H0z"/></clipPath><clipPath id="j"><path d="M0 0h430v430H0z"/></clipPath><clipPath id="h"><path d="M0 0h430v430H0z"/></clipPath><filter id="a" width="100%" height="100%" x="0%" y="0%" filterUnits="objectBoundingBox"><feComponentTransfer in="SourceGraphic"><feFuncA tableValues="1.0 0.0" type="table"/></feComponentTransfer></filter><filter id="d" width="100%" height="100%" x="0%" y="0%" filterUnits="objectBoundingBox"><feComponentTransfer in="SourceGraphic"><feFuncA tableValues="1.0 0.0" type="table"/></feComponentTransfer></filter><mask id="m" mask-type="alpha"><g filter="url(#a)"><path fill="#fff" d="M0 0h430v430H0z" opacity="0"/><use xmlns:ns1="http://www.w3.org/1999/xlink" ns1:href="#b"/></g></mask><mask id="k" mask-type="alpha"><g filter="url(#d)"><path fill="#fff" d="M0 0h430v430H0z" opacity="0"/><use xmlns:ns2="http://www.w3.org/1999/xlink" ns2:href="#e"/></g></mask><g id="b" clip-path="url(#g)" style="display:none"><path style="display:none"/><path style="display:none"/></g><g id="e" clip-path="url(#h)" style="display:block"><g style="display:block"><path fill-opacity="0" stroke="#121331" stroke-linecap="round" stroke-linejoin="round" stroke-width="0" d="M191.885 285.517c0-43.752-35.468-79.22-79.22-79.22s-79.22 35.468-79.22 79.22 35.468 79.22 79.22 79.22 79.22-35.468 79.22-79.22" class="primary"/><path fill="red" d="M191.885 285.517c0-43.752-35.468-79.22-79.22-79.22s-79.22 35.468-79.22 79.22 35.468 79.22 79.22 79.22 79.22-35.468 79.22-79.22"/><path fill-opacity="0" stroke="#08A789" stroke-linecap="round" stroke-linejoin="round" stroke-width="0" d="M81.06 285.517c0 17.455 14.15 31.605 31.605 31.605s31.605-14.15 31.605-31.605-14.15-31.605-31.605-31.605-31.605 14.15-31.605 31.605"/><path fill="red" d="M81.06 285.517c0 17.455 14.15 31.605 31.605 31.605s31.605-14.15 31.605-31.605-14.15-31.605-31.605-31.605-31.605 14.15-31.605 31.605"/></g><g style="display:block"><path fill-opacity="0" stroke="#121331" stroke-linecap="round" stroke-linejoin="round" stroke-width="0" d="M288.362 310.641c0-29.876 24.22-54.096 54.096-54.096s54.096 24.22 54.096 54.096-24.22 54.096-54.096 54.096-54.096-24.22-54.096-54.096" class="primary"/><path fill="red" d="M288.362 310.641c0-29.876 24.22-54.096 54.096-54.096s54.096 24.22 54.096 54.096-24.22 54.096-54.096 54.096-54.096-24.22-54.096-54.096"/><path fill-opacity="0" stroke="#08A789" stroke-linecap="round" stroke-linejoin="round" stroke-width="0" d="M324.97 310.641c0 9.658 7.83 17.488 17.488 17.488s17.488-7.83 17.488-17.488-7.83-17.488-17.488-17.488-17.488 7.83-17.488 17.488"/><path fill="red" d="M324.97 310.641c0 9.658 7.83 17.488 17.488 17.488s17.488-7.83 17.488-17.488-7.83-17.488-17.488-17.488-17.488 7.83-17.488 17.488"/></g></g></defs><g clip-path="url(#i)"><g clip-path="url(#j)" style="display:block"><g fill="none" stroke-linecap="round" stroke-linejoin="round" stroke-width="12" mask="url(#k)" style="display:block"><path stroke="#121331" d="M189.01 306.73h99.49m-52.04-133.09h117.09c16.07 0 28.13 13.39 24.97 27.73l-13.29 60.19m-245.687-87.916h-13.754" class="primary"/><path stroke="#121331" d="M113.616 173.644V65.263h113.447l9.4 108.381 7.897 91.035h-21.542" class="primary"/><path stroke="#121331" d="M222.749 306.733a112.7 112.7 0 0 0 2.009-21.215c0-7.124-.664-14.091-1.94-20.839-7.087-37.47-33.577-69.493-69.062-83.477-21.439-8.449-45.461-10.066-67.836-4.55a111.3 111.3 0 0 0-38.512 17.722m17.446 27.984-17.446-27.984m113.31-129.081v118.94" class="primary"/><path stroke="#08A88A" d="M319.144 203.878h-37.608m37.607 28.344h-37.96M97.389 65.293h146.17" class="secondary"/></g><g fill="none" stroke-linecap="round" stroke-linejoin="round" stroke-width="12" style="display:block"><path stroke="#121331" d="M191.885 285.517c0-43.752-35.468-79.22-79.22-79.22s-79.22 35.468-79.22 79.22 35.468 79.22 79.22 79.22 79.22-35.468 79.22-79.22" class="primary"/><path stroke="#08A88A" d="M81.06 285.517c0 17.455 14.15 31.605 31.605 31.605s31.605-14.15 31.605-31.605-14.15-31.605-31.605-31.605-31.605 14.15-31.605 31.605" class="secondary"/></g><g fill="none" stroke-linecap="round" stroke-linejoin="round" stroke-width="12" style="display:block"><path stroke="#121331" d="M288.362 310.641c0-29.876 24.22-54.096 54.096-54.096s54.096 24.22 54.096 54.096-24.22 54.096-54.096 54.096-54.096-24.22-54.096-54.096" class="primary"/><path stroke="#08A88A" d="M324.97 310.641c0 9.658 7.83 17.488 17.488 17.488s17.488-7.83 17.488-17.488-7.83-17.488-17.488-17.488-17.488 7.83-17.488 17.488" class="secondary"/></g><path fill="none" stroke="#121331" stroke-linecap="round" stroke-linejoin="round" stroke-width="12" d="M-10.885 54.066V-8.253a36.87 36.87 0 0 1 5.469-19.322l16.301-26.491" class="primary" style="display:block" transform="translate(288.363 119.36)"/><g opacity="0" style="display:block"><path fill="none" stroke="#121331" stroke-width="12" d="M76-94c13.807 0 25 11.193 25 25S89.807-44 76-44 51-55.193 51-69s11.193-25 25-25z" class="primary" opacity="1"/></g><g opacity="0" style="display:block"><path fill="none" stroke="#121331" stroke-width="12" d="M196-86.5c13.807 0 25 11.193 25 25s-11.193 25-25 25-25-11.193-25-25 11.193-25 25-25z" class="primary" opacity="1"/></g><g opacity="0" style="display:block"><path fill="none" stroke="#121331" stroke-width="12" d="M213-90c13.807 0 25 11.193 25 25s-11.193 25-25 25-25-11.193-25-25 11.193-25 25-25z" class="primary" opacity="1"/></g><g opacity="0" style="display:block"><path fill="none" stroke="#121331" stroke-width="12" d="M213-90c13.807 0 25 11.193 25 25s-11.193 25-25 25-25-11.193-25-25 11.193-25 25-25z" class="primary" opacity="1"/></g></g><g fill="none" clip-path="url(#l)" style="display:none"><g mask="url(#m)" style="display:none"><path class="primary"/><path class="primary"/><path class="primary"/><path class="primary"/><path class="primary"/><path class="primary"/><path class="primary"/><path class="secondary"/><path class="secondary"/><path class="secondary"/></g><g style="display:none"><path class="primary"/><path class="secondary"/></g><g style="display:none"><path class="primary"/><path class="secondary"/></g><path class="primary" style="display:none"/></g></g></svg>